PathFileType	4	(X/Y/Z)	Patient4_TMGait_0pt7_01_right_33.trc.trc
DataRate	CameraRate	NumFrames	NumMarkers	Units	OrigDataRate	OrigDataStartFrame	OrigNumFrames
86.956521739130	86.956521739130	4	33	mm	86.956521739130	1	       141
Frame#	Time	Sacral			L.Shoulder			Chest			R.Shoulder			Neck			R.ASIS			L.ASIS			R.Thigh.Superior			R.Thigh.Lateral			R.Thigh.Inferior			R.Patella			L.Thigh.Superior			L.Thigh.Lateral			L.Thigh.Inferior			L.Patella			L.Shank.Superior			L.Shank.Lateral			L.Shank.Inferior			R.Shank.Superior			R.Shank.Lateral			R.Shank.Inferior			R.Heel			R.Midfoot.Superior			R.Midfoot.Lateral			R.Toe			L.Heel			L.Midfoot.Lateral			L.Midfoot.Superior			L.Toe			L.Elbow			L.Wrist			R.Elbow			R.Wrist			
		X1	Y1	Z1	X2	Y2	Z2	X3	Y3	Z3	X4	Y4	Z4	X5	Y5	Z5	X6	Y6	Z6	X7	Y7	Z7	X8	Y8	Z8	X9	Y9	Z9	X10	Y10	Z10	X11	Y11	Z11	X12	Y12	Z12	X13	Y13	Z13	X14	Y14	Z14	X15	Y15	Z15	X16	Y16	Z16	X17	Y17	Z17	X18	Y18	Z18	X19	Y19	Z19	X20	Y20	Z20	X21	Y21	Z21	X22	Y22	Z22	X23	Y23	Z23	X24	Y24	Z24	X25	Y25	Z25	X26	Y26	Z26	X27	Y27	Z27	X28	Y28	Z28	X29	Y29	Z29	X30	Y30	Z30	X31	Y31	Z31	X32	Y32	Z32	X33	Y33	Z33	

1	37.560000000000	788.223557457313	1013.695539237707	449.505450218425	1001.506457486308	1423.363725459490	256.603015972201	1093.205882261526	1355.858347270877	425.391132526578	1005.502355875514	1448.009076353384	590.376459473054	1006.859646483849	1492.152690154176	408.335342803548	1007.849967268724	947.364525948592	577.938160128380	1008.529463227014	956.946892836377	303.426532509522	1090.059030345671	780.426428806457	558.417686792826	1046.566205657076	660.025810470795	633.976754566244	1142.757848553361	620.583454367319	563.322209182291	1160.389893885105	507.643991301159	587.876112110251	1059.208202474650	753.298836094697	329.110675456763	972.766066026125	637.054736289292	272.038330110177	1059.688253321991	560.903434362880	335.563550488786	1061.473429609733	490.985500944017	346.144932588436	1033.691189451969	418.193253005273	338.278965680068	944.534987071904	304.985816537202	282.275324518314	990.450023924322	193.944733992052	357.899910964469	1084.664219610186	432.117705780481	588.976616100901	958.840161800951	392.322062797448	639.805118713044	949.327243966611	282.878414138554	590.597334469914	750.849194100075	216.844263139252	547.989801720894	918.171117171106	162.643482785863	598.768357585875	806.865417524143	159.352650768070	625.770658695120	984.790421647749	53.427540183571	631.669882843855	859.898762914692	38.299446538698	393.867344741079	938.265352395495	35.036016947334	316.530291778149	1019.155368336982	96.333712941631	348.426635004737	1149.682393558485	45.209185681820	327.857985785692	990.133014932407	1079.519512107155	120.935033974264	1133.934874150596	858.965207183054	134.425127675302	955.983006562263	1116.541411484347	736.328757016484	1169.020656053385	972.185034837671	704.696311053293	
2	37.571500000000	786.812291483171	1014.154652091522	448.445949009863	1000.969185793421	1424.135952110455	255.998660475608	1091.718308094537	1356.549644268561	425.318263582940	1003.058292319434	1448.481657788045	589.762913546758	1005.253439529610	1492.806022191851	407.710037494492	1006.226671994929	948.510657202700	577.690578670366	1007.765841065501	957.609725719405	302.860040857582	1089.827812309334	783.398640108051	558.053172698335	1048.295033805290	662.366437447073	633.416963442040	1144.602353110582	624.242508699094	562.354783249361	1164.572573205655	512.475170275152	586.905705207914	1055.365254516805	752.433200018903	329.734660818678	967.947985142135	637.247599109680	271.864181341181	1053.177597697060	560.015126434041	336.009560743052	1053.879868612987	490.366712016651	346.639587006914	1026.090038143774	417.936655477371	338.424039861277	936.740246994330	304.957442455979	282.264903343560	982.166476671266	193.812016458248	358.047652420396	1091.880613997183	434.834255556590	588.346249536589	968.835957641978	389.330642314877	640.015450528047	964.036346393391	279.780634175195	590.757551015330	769.051657477758	205.057513848057	549.709890952173	938.468390073066	158.299239117088	599.360261128113	827.950671869281	150.016224163984	626.818770429476	1009.927353638805	52.207497749077	631.323860359062	851.346064014769	38.256964864129	393.897521826562	929.713791457044	35.031078240638	316.564964126489	1010.589873038923	96.295229257708	348.488375238249	1141.137696701624	45.178915465600	327.887606970279	998.183573392490	1081.652200996721	118.593499188820	1152.290708945770	869.456752618516	134.677604740448	946.227178286901	1117.349538351579	734.342539011686	1143.543272528493	955.003070761613	709.084411372788	
3	37.583000000000	785.422899606629	1014.599798026040	447.409643478684	1000.456068312286	1424.883569436562	255.425346252296	1090.262004305606	1357.216040556014	425.279041301855	1000.648009188042	1448.926646817355	589.178857833138	1003.674416721894	1493.432948093282	407.117238686004	1004.611985178553	949.592961239419	577.454158295224	1007.012896185582	958.232241398697	302.326932665287	1089.568259665455	786.249375842991	557.684857380328	1049.913247793063	664.589463533761	632.837697420645	1146.283324098342	627.719830880479	561.355596683420	1168.528383969998	517.152537833241	585.903979169921	1051.577157743058	751.575338514021	330.411519500045	963.212936089378	637.427566032630	271.689949350378	1046.751476955245	559.131327383548	336.457253930178	1046.379377170008	489.749012790048	347.126680551446	1018.589115143565	417.676081524133	338.568078392266	929.057845284212	304.922152647263	282.245998421544	973.988837468324	193.675465831448	358.193137063178	1098.902974761629	437.442796111285	587.698825696087	978.728678781262	386.250494480753	640.258075560002	978.660961814651	276.626600323452	590.949869771668	787.272931763310	193.195647502299	551.493815708834	958.731842475533	153.943425303654	599.973501807618	849.053777268741	140.674070126639	627.932833465183	1035.027985442341	51.049895450655	631.029714802830	842.902008486177	38.214021374562	393.927801059220	921.269602565789	35.024149824690	316.601033681077	1002.131012861499	96.253886033818	348.554586390358	1132.701647710554	45.146304737821	327.918803324483	1006.049813336476	1083.775840833700	116.323921234247	1170.305273071007	879.971284302319	135.011314141881	936.743201047784	1118.126125522598	732.426109546480	1118.174670763759	938.319145010434	713.341957366184	
4	37.594500000000	784.077885451177	1015.002007114753	446.419487850886	999.984450610984	1425.573767428489	254.925778738099	1088.860903943124	1357.821442548427	425.315240083804	998.300522766931	1449.306545082689	588.664671678580	1002.144707683889	1493.996798926755	406.600223813842	1003.014472862166	950.538547842346	577.247496523591	1006.284480184361	958.778587818365	301.864034088242	1089.216874687758	788.820245948169	557.313100690658	1051.273589890727	666.555094406201	632.235872720258	1147.601818241377	630.809800082752	560.300667896891	1172.007491099397	521.525720035857	584.842109878807	1047.882806896493	750.720433347096	331.172590323467	958.596254070402	637.583375922759	271.511099258269	1040.434162152293	558.248336451868	336.897621620129	1039.008744253903	489.133477951771	347.588741465466	1011.217220599933	417.404549683767	338.703218457960	921.519080000318	304.874091014372	282.207149840423	965.938485008171	193.531166942430	358.330164435759	1105.556221548742	439.843558836669	587.024782990097	988.488712419077	382.974097512746	640.555174318624	993.239192643177	273.385182104131	591.195696289975	805.767584971985	181.160009963843	553.373145818903	979.109717185346	149.624590604493	600.616592297778	870.421173685042	131.332410726651	629.148374960725	1060.250342628556	50.146624430766	630.818756429135	834.583870500576	38.173369738438	393.957015371265	912.948937043436	35.013883787683	316.639121831486	993.795937082603	96.207277172799	348.627287932636	1124.391429933964	45.107498692825	327.953070288159	1013.600958032707	1085.888262119379	114.201407757053	1187.722612376576	890.666387386549	135.535195976468	927.684894732946	1118.862542210257	730.631064919342	1092.853135573575	922.638336586778	717.361902104157	
